<svg width="80" height="80" viewBox="0 0 80 80" fill="none" xmlns="http://www.w3.org/2000/svg">
<rect width="80" height="80" rx="16" fill="#F0B90B"/>
<path d="M53.6722 37.9153L53.6448 32.0272H53.6662L48.6649 29.0831L40.0947 34.1362L31.5764 29.0831L26.5781 32.0272V37.9153L35.1483 42.9441V53.0259L40.1252 55.9425L45.1021 53.0259V42.9441L53.6722 37.9153Z" fill="white"/>
<path d="M40.0978 14L26.5751 21.9728L31.552 24.9169L40.0978 19.8638L48.6679 24.9169L53.6448 21.9728L40.0978 14Z" fill="white"/>
<path d="M23.0043 50.0572L22.9769 39.9998L18.003 37.0588V53.0287L31.5501 60.9741V55.0859L23.0043 50.0572Z" fill="white"/>
<path d="M22.9769 35.8031V29.9424L27.9782 26.9983L22.9769 24.0542L18 26.9983V32.859L22.9769 35.8031Z" fill="white"/>
<path d="M40.0959 24.0542L35.119 26.9983L40.0959 29.9424L45.0972 26.9983L40.0959 24.0542Z" fill="white"/>
<path d="M31.552 45.0287L26.5751 42.0846V47.9728L31.552 50.8895V45.0287Z" fill="white"/>
<path d="M40.0978 60.1393L35.1209 57.1952V63.0559L40.0978 66L45.099 63.0559V57.1952L40.0978 60.1393Z" fill="white"/>
<path d="M57.2137 24.0544L52.2368 26.9985L57.2137 29.9426V35.8033L62.215 32.8592V26.9985L57.2137 24.0544Z" fill="white"/>
<path d="M62.218 37.0559L57.2411 40L57.2137 50.0574L48.671 55.0831V60.9713L62.218 53.0259V37.0559Z" fill="white"/>
<path d="M53.6465 47.9724L48.6696 50.8891V45.0283L53.6465 42.0842V47.9724Z" fill="white"/>
</svg>
