<svg width="80" height="80" viewBox="0 0 80 80" fill="none" xmlns="http://www.w3.org/2000/svg">
<rect width="80" height="80" rx="16" fill="#ECEFF0"/>
<path d="M40.0287 49.8994C39.8733 49.9522 39.7847 49.817 39.679 49.7548C34.4988 46.6975 29.3242 43.638 24.1554 40.5765C24.1054 40.5512 24.0534 40.5299 24 40.5128V40.4444L24.0917 40.3916C24.2219 40.3574 24.35 40.3159 24.4756 40.2673L36.6828 34.713C37.7706 34.2173 38.8585 33.7293 39.9463 33.2382H40.024C40.024 33.3936 40.024 33.5319 40.024 33.6796C40.0282 39.0867 40.0297 44.4933 40.0287 49.8994Z" fill="#343535"/>
<path d="M40.0364 33.242H39.9587C39.9587 33.0866 39.9742 32.9312 39.9742 32.768C39.9742 26.6947 39.9742 20.6209 39.9742 14.5466C39.9564 14.3905 39.9669 14.2326 40.0053 14.0803H40.0379C40.6767 15.0236 41.233 16.0183 41.8205 16.9927C46.4744 24.7122 51.1257 32.4308 55.7745 40.1483C55.8195 40.2244 55.8553 40.3037 55.8957 40.3876C55.764 40.3595 55.6347 40.3215 55.5087 40.2741C54.6555 39.8887 53.7992 39.4971 52.9538 39.1039C51.6298 38.4978 50.3052 37.8928 48.9801 37.2888L42.5959 34.3967C41.7459 34.005 40.8911 33.6243 40.0364 33.242Z" fill="#2F3030"/>
<path d="M40.0104 14.0723C39.972 14.2246 39.9615 14.3825 39.9793 14.5385C39.9793 20.6118 39.9793 26.6856 39.9793 32.76C39.9793 32.9154 39.97 33.0708 39.9638 33.234C38.876 33.725 37.7881 34.213 36.7003 34.7088L24.493 40.263C24.3675 40.3116 24.2394 40.3531 24.1092 40.3873C24.462 39.6538 24.9204 38.9887 25.3385 38.2862C30.182 30.2351 35.0291 22.1856 39.8799 14.1376C39.9119 14.093 39.9467 14.0504 39.984 14.0101L40.0104 14.0723Z" fill="#828384"/>
<path d="M40.0364 33.242C40.8911 33.6243 41.7461 34.0052 42.5993 34.3906L48.9834 37.2827C50.3096 37.8857 51.6342 38.4907 52.9572 39.0979C53.8088 39.4879 54.6667 39.8827 55.5121 40.2681C55.6381 40.3155 55.7674 40.3534 55.899 40.3815C56.0544 40.5758 55.8244 40.5835 55.7545 40.6255C54.4289 41.4181 53.0971 42.1998 51.7683 42.9861C47.9546 45.2426 44.142 47.4986 40.3304 49.7541C40.234 49.81 40.1297 49.8512 40.0287 49.8994C40.0287 44.4943 40.0289 39.0896 40.0289 33.6835C40.0304 33.5358 40.0348 33.3896 40.0364 33.242Z" fill="#131313"/>
<path d="M39.9741 52.9697L49.959 47.0845C51.8653 45.9593 53.7706 44.8331 55.6748 43.7059L55.8473 43.6111C55.8644 43.7665 55.7572 43.8489 55.6919 43.939C51.3405 50.0734 46.9891 56.2058 42.6377 62.3361C41.8141 63.4985 40.992 64.6672 40.1606 65.8203C40.117 65.8809 40.0502 66.1653 39.9166 65.8638C40.0222 65.7737 39.9756 65.6525 39.9756 65.553C39.9767 61.357 39.9761 57.1626 39.9741 52.9697Z" fill="#2F3030"/>
<path d="M39.9732 52.9705C39.9732 57.1634 39.9732 61.3552 39.9732 65.546C39.9732 65.6532 40.0198 65.7745 39.9142 65.8568C39.6919 65.7232 39.5956 65.4838 39.4479 65.2865C34.4024 58.1792 29.3594 51.0709 24.3191 43.9616C24.2554 43.8714 24.1963 43.7751 24.131 43.6756C24.2616 43.5995 24.3315 43.7036 24.4077 43.7487C29.5102 46.7615 34.6117 49.7769 39.7121 52.7949C39.8069 52.8539 39.8877 52.9145 39.9732 52.9705Z" fill="#828384"/>
<path d="M40.0116 14.0722L39.9743 14.0147C40.0427 13.9712 40.0333 14.0349 40.0442 14.0676L40.0116 14.0722Z" fill="#393939"/>
</svg>
